#!OML:ASF H:\Pregnant\Project 1\Capture day 1\Session 1\femalepreg.ASF
:FULLY-SPECIFIED
:DEGREES
1282
root -0.538281 15.0874 21.1709 382.886 -7.52413 -366.746
lowerback -16.0057 0.427782 4.81509
upperback -7.67818 -0.195151 1.4408
thorax 0.791436 -0.210023 -1.23755
lowerneck -24.5369 -11.1628 -7.54756
upperneck 24.573 -16.0135 9.24378
head 13.8461 -6.48083 1.68449
rclavicle -2.86312e-014 -6.75868e-015
rhumerus -11.3611 23.9004 -80.2653
rradius 53.87
rwrist -36.0578
rhand -27.6811 -44.7874
rfingers 7.12502
rthumb -1.07793 -74.7644
lclavicle -2.86312e-014 -6.75868e-015
lhumerus -14.4112 -21.7637 67.3581
lradius 53.4501
lwrist 51.2425
lhand -34.7131 23.5121
lfingers 7.12502
lthumb -7.86788 53.3457
rfemur -18.0459 15.2386 27.9967
rtibia 35.4127
rfoot -19.388 -10.6783
rtoes -27.3152
lfemur -53.0213 -4.04999 -8.96035
ltibia 23.9815
lfoot 5.08625 3.91372
ltoes -45.9138
1283
root -0.533634 15.0789 21.3091 382.911 -7.68742 -366.493
lowerback -16.0016 0.286727 3.9944
upperback -7.66222 -0.260642 1.26733
thorax 0.813089 -0.224742 -0.968582
lowerneck -24.5168 -11.2363 -7.60182
upperneck 24.4731 -16.1566 9.44921
head 13.8442 -6.52424 1.74062
rclavicle 1.54058e-015 -1.59028e-014
rhumerus -11.6355 23.7522 -80.2852
rradius 53.875
rwrist -36.1306
rhand -27.6069 -44.6478
rfingers 7.12502
rthumb -1.00628 -74.6252
lclavicle 1.54058e-015 -1.59028e-014
lhumerus -14.335 -21.7746 67.4901
lradius 53.3329
lwrist 51.0194
lhand -34.8038 23.5208
lfingers 7.12502
lthumb -7.95537 53.3511
rfemur -18.0548 15.218 27.7054
rtibia 36.2559
rfoot -19.1462 -10.5253
rtoes -28.3051
lfemur -53.0984 -4.04023 -9.38638
ltibia 24.7291
lfoot 5.84106 3.22063
ltoes -45.5433
1284
root -0.531298 15.0718 21.4463 382.936 -7.84892 -366.156
lowerback -15.9944 0.127913 3.04939
upperback -7.63726 -0.331098 1.06197
thorax 0.843668 -0.239411 -0.663154
lowerneck -24.4983 -11.3287 -7.64516
upperneck 24.3255 -16.3382 9.69597
head 13.831 -6.57939 1.80221
rclavicle 2.49785e-014 -1.59028e-015
rhumerus -11.9046 23.5787 -80.2962
rradius 53.8806
rwrist -36.2174
rhand -27.5654 -44.4995
rfingers 7.12502
rthumb -0.966158 -74.4771
lclavicle 2.49785e-014 -1.59028e-015
lhumerus -14.2244 -21.8147 67.6081
lradius 53.2219
lwrist 50.7623
lhand -34.9164 23.5129
lfingers 7.12502
lthumb -8.06412 53.3391
rfemur -18.2269 15.1363 27.3374
rtibia 37.3494
rfoot -18.8523 -10.3378
rtoes -29.3108
lfemur -53.1686 -4.04557 -9.90405
ltibia 25.4975
lfoot 6.23847 2.73501
ltoes -44.9102
1285
root -0.531132 15.0652 21.5797 382.96 -7.99531 -365.744
lowerback -15.9429 -0.0582979 1.98363
upperback -7.61723 -0.418697 0.839366
thorax 0.84632 -0.260643 -0.309505
lowerneck -24.465 -11.4355 -7.68881
upperneck 24.1303 -16.5492 9.98761
head 13.8044 -6.64391 1.8748
rclavicle 1.20016e-014 -1.59028e-015
rhumerus -12.1951 23.42 -80.2924
rradius 53.9071
rwrist -36.3249
rhand -27.5596 -44.3235
rfingers 7.12502
rthumb -0.960611 -74.301
lclavicle 1.20016e-014 -1.59028e-015
lhumerus -14.1036 -21.8722 67.7231
lradius 53.1225
lwrist 50.4758
lhand -35.0329 23.4944
lfingers 7.12502
lthumb -8.17651 53.3162
rfemur -18.5898 14.9996 26.9074
rtibia 38.7098
rfoot -18.4641 -10.1081
rtoes -30.276
lfemur -53.2505 -4.03558 -10.536
ltibia 26.3012
lfoot 6.24404 2.37602
ltoes -43.9917
1286
root -0.532554 15.0588 21.709 382.983 -8.11557 -365.281
lowerback -15.8406 -0.27237 0.826682
upperback -7.602 -0.530538 0.610086
thorax 0.817819 -0.292157 0.0857557
lowerneck -24.4139 -11.5521 -7.73774
upperneck 23.8915 -16.7826 10.3274
head 13.7661 -6.71506 1.96187
rclavicle 9.95787e-015 -1.19271e-014
rhumerus -12.4857 23.2964 -80.272
rradius 53.9321
rwrist -36.4515
rhand -27.5455 -44.1193
rfingers 7.12502
rthumb -0.94691 -74.0969
lclavicle 9.95787e-015 -1.19271e-014
lhumerus -13.9824 -21.9306 67.8364
lradius 53.0378
lwrist 50.1633
lhand -35.1499 23.4705
lfingers 7.12502
lthumb -8.2894 53.2879
rfemur -19.1487 14.7889 26.439
rtibia 40.3378
rfoot -17.9623 -9.81207
rtoes -31.1754
lfemur -53.3455 -4.01261 -11.26
ltibia 27.1337
lfoot 5.9218 2.09196
ltoes -42.8158
1287
root -0.534873 15.0532 21.8353 382.997 -8.20847 -364.794
lowerback -15.6844 -0.504961 -0.383114
upperback -7.5831 -0.662517 0.385036
thorax 0.766059 -0.332137 0.513069
lowerneck -24.3533 -11.6806 -7.79517
upperneck 23.6155 -17.0369 10.7068
head 13.72 -6.79326 2.06039
rclavicle -1.61171e-014 -7.95139e-015
rhumerus -12.7745 23.2144 -80.2257
rradius 53.958
rwrist -36.5972
rhand -27.513 -43.9565
rfingers 7.12502
rthumb -0.915525 -73.9343
lclavicle -1.61171e-014 -7.95139e-015
lhumerus -13.8545 -21.9878 67.9512
lradius 52.9646
lwrist 49.8408
lhand -35.254 23.4303
lfingers 7.12502
lthumb -8.38991 53.2436
rfemur -19.8765 14.4934 25.9606
rtibia 42.2068
rfoot -17.3087 -9.40583
rtoes -31.9442
lfemur -53.4221 -4.00525 -12.0229
ltibia 27.962
lfoot 5.38985 1.87248
ltoes -41.4815
1288
root -0.537797 15.0487 21.9578 382.993 -8.27691 -364.299
lowerback -15.4613 -0.751915 -1.63
upperback -7.56318 -0.814454 0.175274
thorax 0.682213 -0.380268 0.975253
lowerneck -24.2823 -11.8237 -7.87188
upperneck 23.3289 -17.3082 11.1014
head 13.6751 -6.88014 2.16331
rclavicle -5.08454e-015 7.95139e-015
rhumerus -13.0708 23.1708 -80.1555
rradius 53.9882
rwrist -36.744
rhand -27.4526 -43.8219
rfingers 7.12502
rthumb -0.85723 -73.7999
lclavicle -5.08454e-015 7.95139e-015
lhumerus -13.73 -22.0411 68.0744
lradius 52.9003
lwrist 49.5302
lhand -35.3345 23.3982
lfingers 7.12502
lthumb -8.46759 53.2085
rfemur -20.7514 14.12 25.4873
rtibia 44.2696
rfoot -16.4665 -8.86575
rtoes -32.5023
lfemur -53.4508 -4.06307 -12.7589
ltibia 28.729
lfoot 4.80716 1.74709
ltoes -40.1887
1289
root -0.540794 15.0467 22.0789 382.956 -8.33776 -363.82
lowerback -15.1772 -0.996026 -2.88025
upperback -7.53192 -0.971118 -0.0143385
thorax 0.580285 -0.429402 1.46066
lowerneck -24.1912 -11.9794 -7.98351
upperneck 23.0225 -17.5888 11.5191
head 13.6278 -6.97366 2.27804
rclavicle 5.40446e-016 2.38542e-015
rhumerus -13.3588 23.1804 -80.0514
rradius 54.0114
rwrist -36.9151
rhand -27.3715 -43.7463
rfingers 7.12502
rthumb -0.778942 -73.7246
lclavicle 5.40446e-016 2.38542e-015
lhumerus -13.6024 -22.0967 68.2078
lradius 52.8389
lwrist 49.2543
lhand -35.3869 23.3699
lfingers 7.12502
lthumb -8.51819 53.1781
rfemur -21.7172 13.6777 25.0349
rtibia 46.4603
rfoot -15.389 -8.16881
rtoes -32.7391
lfemur -53.3728 -4.22895 -13.4123
ltibia 29.3815
lfoot 4.2766 1.77033
ltoes -39.1357
1290
root -0.543446 15.0487 22.1993 382.876 -8.40702 -363.378
lowerback -14.8272 -1.22473 -4.10603
upperback -7.48577 -1.12235 -0.173078
thorax 0.460982 -0.474864 1.96643
lowerneck -24.0838 -12.1468 -8.14807
upperneck 22.7094 -17.8694 11.9496
head 13.5839 -7.07191 2.40522
rclavicle -1.94001e-014 3.49861e-014
rhumerus -13.6266 23.2505 -79.9095
rradius 54.0211
rwrist -37.1126
rhand -27.2851 -43.7614
rfingers 7.12502
rthumb -0.695416 -73.74
lclavicle -1.94001e-014 3.49861e-014
lhumerus -13.4765 -22.1563 68.3578
lradius 52.7736
lwrist 49.0344
lhand -35.4054 23.3264
lfingers 7.12502
lthumb -8.53606 53.1339
rfemur -22.7237 13.1825 24.6183
rtibia 48.7056
rfoot -14.044 -7.32304
rtoes -32.4634
lfemur -53.1413 -4.53253 -13.9487
ltibia 29.87
lfoot 3.84766 1.99013
ltoes -38.7116
1291
root -0.545029 15.0546 22.3198 382.769 -8.50178 -362.995
lowerback -14.4456 -1.4218 -5.26777
upperback -7.42997 -1.25187 -0.302251
thorax 0.334919 -0.509657 2.47093
lowerneck -23.9561 -12.3238 -8.37159
upperneck 22.4007 -18.1441 12.384
head 13.5462 -7.17361 2.5439
rclavicle -1.85118e-014 -9.54166e-015
rhumerus -13.8865 23.3775 -79.7346
rradius 54.0306
rwrist -37.3422
rhand -27.2152 -43.8118
rfingers 7.12502
rthumb -0.62791 -73.7906
lclavicle -1.85118e-014 -9.54166e-015
lhumerus -13.3527 -22.2339 68.5232
lradius 52.6958
lwrist 48.8789
lhand -35.3954 23.2911
lfingers 7.12502
lthumb -8.52635 53.0989
rfemur -23.7549 12.6539 24.2414
rtibia 50.9409
rfoot -12.4007 -6.38077
rtoes -31.5058
lfemur -52.7587 -4.90895 -14.3865
ltibia 30.1856
lfoot 3.52753 2.37813
ltoes -38.8381
1292
root -0.544731 15.0645 22.4418 382.657 -8.63322 -362.691
lowerback -14.0745 -1.58002 -6.32799
upperback -7.36297 -1.35165 -0.397645
thorax 0.224295 -0.531456 2.9579
lowerneck -23.825 -12.5046 -8.65108
upperneck 22.1079 -18.4021 12.8072
head 13.5193 -7.27417 2.68974
rclavicle 1.41013e-014 -7.15625e-015
rhumerus -14.0901 23.5528 -79.5296
rradius 53.9929
rwrist -37.592
rhand -27.1638 -43.8645
rfingers 7.12502
rthumb -0.578327 -73.8435
lclavicle 1.41013e-014 -7.15625e-015
lhumerus -13.2234 -22.3211 68.7018
lradius 52.5942
lwrist 48.7851
lhand -35.3779 23.2059
lfingers 7.12502
lthumb -8.50946 53.0145
rfemur -24.7988 12.1228 23.9087
rtibia 53.1147
rfoot -10.4769 -5.44818
rtoes -29.6846
lfemur -52.2439 -5.33956 -14.7152
ltibia 30.3459
lfoot 3.31857 2.91413
ltoes -39.5102
1293
root -0.542066 15.0765 22.5638 382.572 -8.807 -362.472
lowerback -13.739 -1.69616 -7.26527
upperback -7.29654 -1.4163 -0.464343
thorax 0.12819 -0.538365 3.41027
lowerneck -23.6994 -12.6846 -8.97076
upperneck 21.8414 -18.6383 13.2016
head 13.5042 -7.3712 2.83473
rclavicle -2.60905e-015 -1.11319e-014
rhumerus -14.2592 23.7526 -79.3068
rradius 53.9348
rwrist -37.8443
rhand -27.1437 -43.8672
rfingers 7.12502
rthumb -0.558863 -73.8462
lclavicle -2.60905e-015 -1.11319e-014
lhumerus -13.0864 -22.4265 68.8873
lradius 52.4627
lwrist 48.7435
lhand -35.3534 23.0874
lfingers 7.12502
lthumb -8.48588 52.8969
rfemur -25.8855 11.6202 23.615
rtibia 55.1995
rfoot -8.31265 -4.63754
rtoes -26.8131
lfemur -51.6677 -5.73468 -14.9741
ltibia 30.4041
lfoot 3.18705 3.48956
ltoes -40.4817
